<svg width="16" height="16" viewBox="0 0 16 16" fill="none" xmlns="http://www.w3.org/2000/svg">
<g clip-path="url(#clip0_242_105)">
<path d="M11.3333 2.00001C11.503 1.79936 11.7131 1.63605 11.9499 1.52046C12.1868 1.40488 12.4453 1.33956 12.709 1.32868C12.9727 1.3178 13.2358 1.36159 13.4815 1.45727C13.7272 1.55294 13.9502 1.69839 14.1361 1.88435C14.3221 2.07032 14.467 2.29272 14.5616 2.53737C14.6562 2.78202 14.6985 3.04356 14.6857 3.30533C14.6728 3.56709 14.6052 3.82333 14.4872 4.05772C14.3691 4.29211 14.2032 4.4995 13.9999 4.66667L4.99992 13.6667L1.33325 14.6667L2.33325 11L11.3333 2.00001Z" stroke="#A1A1AA" stroke-width="2" stroke-linecap="round" stroke-linejoin="round"/>
<path d="M10 3.33333L12.6667 5.99999" stroke="#A1A1AA" stroke-width="2" stroke-linecap="round" stroke-linejoin="round"/>
</g>
<defs>
<clipPath id="clip0_242_105">
<rect width="16" height="16" fill="white"/>
</clipPath>
</defs>
</svg>
